# xmcd
#
# Track frame offsets:
#	150
#	19156
#	31741
#	45034
#	63289
#	78182
#	95150
#	109821
#	125332
#	142775
#	157691
#	175553
#	193865
#	209550
#	225819
#	238909
#	249928
#	261706
#	273376
#
# Disc length: 3840 seconds
#
# Revision: 0
# Processed by: cddbd v1.5.2PL0 Copyright (c) Steve Scherf et al.
# Submitted via: audiograbber 1.83.01
#
DISCID=f00efe13
DTITLE=Dolly Parton - The Real... Dolly Parton CD3
DYEAR=2013
DGENRE=Country
TTITLE0=Islands In The Stream (with Kenny Rogers)
TTITLE1=9 To 5
TTITLE2=I Will Always Love You
TTITLE3=The House Of The Rising Sun
TTITLE4=Working Girl
TTITLE5=Single Woman
TTITLE6=Heartbreak Express
TTITLE7=Tennessee Homesick Blues
TTITLE8=Save The Last Dance For Me
TTITLE9=Don't Call It Love
TTITLE10=Yellow Roses
TTITLE11=Do I Ever Cross Your Mind
TTITLE12=Rockin' Years (Duet With Ricky Van Shelton)
TTITLE13=Romeo
TTITLE14=It Wasn't God Who Made Honky Tonk Angels
TTITLE15=Silver Threads And Golden Needles
TTITLE16=Wings Of A Dove
TTITLE17=Why'd You Come In Here Lookin' Like That
TTITLE18=More Where That Came From
EXTD=
EXTT0=
EXTT1=
EXTT2=
EXTT3=
EXTT4=
EXTT5=
EXTT6=
EXTT7=
EXTT8=
EXTT9=
EXTT10=
EXTT11=
EXTT12=
EXTT13=
EXTT14=
EXTT15=
EXTT16=
EXTT17=
EXTT18=
PLAYORDER=
